<svg id="Слой_1" data-name="Слой 1" xmlns="http://www.w3.org/2000/svg" xmlns:xlink="http://www.w3.org/1999/xlink" viewBox="0 0 325.35 157.25"><defs><style>.cls-1{fill:url(#linear-gradient);}.cls-2{fill:#00b5ff;}</style><linearGradient id="linear-gradient" x1="129.26" y1="80.66" x2="196.08" y2="13.84" gradientUnits="userSpaceOnUse"><stop offset="0" stop-color="#02d4ff"/><stop offset="1" stop-color="#004eff"/></linearGradient></defs><path class="cls-1" d="M177,56.57,160.42,94.46A47.05,47.05,0,0,1,129.8,81.2l27.76-25.31-4.07-4.08L128.68,80.08A47.07,47.07,0,0,1,115.44,48.8L151,33.24l9.77-10.53L154.61,35l-3.45,1.39a21.5,21.5,0,0,0,21.5,21.5l1.93-3.58,11.92-6.2Zm19.08-42.73a47.25,47.25,0,0,0-80.65,32.39L153.86,26a21.48,21.48,0,1,1,29.87,28.78l-21,39.77a47.26,47.26,0,0,0,33.32-80.68Z"/><path class="cls-2" d="M13.39,156.33A13.11,13.11,0,0,1,8.6,153.9l1.81-4a14.14,14.14,0,0,0,4.22,2.21,15.3,15.3,0,0,0,5,.86,8.69,8.69,0,0,0,4.67-1,3,3,0,0,0,1.54-2.63,2.55,2.55,0,0,0-.86-2,6.09,6.09,0,0,0-2.19-1.22c-.88-.29-2.08-.62-3.61-1A43.12,43.12,0,0,1,14,143.61a8.58,8.58,0,0,1-3.4-2.38,6.34,6.34,0,0,1-1.43-4.36,7.35,7.35,0,0,1,1.27-4.21,8.46,8.46,0,0,1,3.8-3,15.44,15.44,0,0,1,6.24-1.12,20,20,0,0,1,5,.64A13.86,13.86,0,0,1,29.85,131l-1.65,4a16.12,16.12,0,0,0-3.84-1.63,14.23,14.23,0,0,0-3.89-.56,8.16,8.16,0,0,0-4.59,1,3.22,3.22,0,0,0-1.51,2.76,2.47,2.47,0,0,0,.87,2,6.08,6.08,0,0,0,2.18,1.2c.88.29,2.09.62,3.61,1a37.08,37.08,0,0,1,5.13,1.49,8.82,8.82,0,0,1,3.43,2.37A6.29,6.29,0,0,1,31,149a7.33,7.33,0,0,1-1.26,4.19,8.54,8.54,0,0,1-3.83,3,15.56,15.56,0,0,1-6.25,1.12A21.59,21.59,0,0,1,13.39,156.33Z"/><path class="cls-2" d="M75.35,130.12a9.32,9.32,0,0,1,4.15,3.44,9.53,9.53,0,0,1,1.44,5.3,9.64,9.64,0,0,1-1.44,5.29,9.28,9.28,0,0,1-4.15,3.45A15.76,15.76,0,0,1,69,148.79H62.66v8.06H57.45V128.93H69A15.76,15.76,0,0,1,75.35,130.12ZM73.92,143a5.66,5.66,0,0,0,0-8.22,8,8,0,0,0-5.17-1.43H62.66v11.09h6.09A8,8,0,0,0,73.92,143Z"/><path class="cls-2" d="M110.1,154q-3.24-3.25-3.25-9.32V128.93h5.22v15.56q0,8.2,7.13,8.21t7.1-8.21V128.93h5.13v15.75q0,6.07-3.23,9.32t-9,3.25Q113.36,157.25,110.1,154Z"/><path class="cls-2" d="M165.62,133.32h-9.3v-4.39h23.81v4.39h-9.3v23.53h-5.21Z"/><path class="cls-2" d="M230.07,128.93v27.92h-4.29l-15.47-18.91v18.91h-5.17V128.93h4.29l15.47,18.91V128.93Z"/><path class="cls-2" d="M258.53,128.93h5.21v27.92h-5.21Z"/><path class="cls-2" d="M302.64,145.08h-5.21v11.77H292.3V128.93h5.13v11.69h5.37l8.06-11.69h5.53l-9.58,13.52,9.94,14.4h-5.89Z"/></svg>